<svg
                width="42"
                height="50"
                viewBox="0 0 42 50"
                fill="none"
                xmlns="http://www.w3.org/2000/svg"
              >
                <circle cx="20" cy="20" r="20" fill="#3F59FF" />
                <path
                  d="M8.3 47.7L7.45 13.55L5 13.9L4 9.5C4.93333 9.3 6.16667 9.1 7.7 8.9C9.26667 8.66666 10.9667 8.45 12.8 8.25C14.6333 8.01666 16.4333 7.83333 18.2 7.7C19.9667 7.56667 21.5333 7.5 22.9 7.5C25.4333 7.5 27.7667 8.01666 29.9 9.05C32.0333 10.0833 33.75 11.5333 35.05 13.4C36.35 15.2667 37 17.4333 37 19.9C37 22.9333 36.35 25.4667 35.05 27.5C33.75 29.5 32.0167 31 29.85 32C27.7167 33 25.3333 33.5 22.7 33.5C21.6 33.5 20.35 33.3667 18.95 33.1C17.55 32.8333 16.0667 32.35 14.5 31.65V47L8.3 47.7ZM14.5 26.9C15.2333 27.1667 16.05 27.4167 16.95 27.65C17.85 27.85 18.7167 28 19.55 28.1C20.4167 28.2 21.1 28.25 21.6 28.25C24.0333 28.25 26.0333 27.6 27.6 26.3C29.2 24.9667 30 22.9333 30 20.2C30 18.6667 29.6333 17.35 28.9 16.25C28.1667 15.15 27.2167 14.3 26.05 13.7C24.8833 13.1 23.65 12.8 22.35 12.8C21.1833 12.8 19.8833 12.8167 18.45 12.85C17.0167 12.85 15.7 12.9 14.5 13V26.9Z"
                  fill="white"
                />
              </svg>